<svg width="32" height="32" viewBox="0 0 32 32" fill="none" xmlns="http://www.w3.org/2000/svg">
<rect width="32" height="32" rx="10" fill="url(#paint0_linear_4180_38328)"/>
<g filter="url(#filter0_d_4180_38328)">
<circle cx="13.5" cy="13.5" r="2.5" fill="white"/>
</g>
<path fill-rule="evenodd" clip-rule="evenodd" d="M18.9551 5.71094C21.5337 5.71094 22.8236 5.71101 23.8086 6.21289C24.675 6.65439 25.3798 7.35913 25.8213 8.22559C26.3232 9.21058 26.3232 10.5003 26.3232 13.0791V19.0664C26.3232 21.645 26.323 22.935 25.8213 23.9199C25.3799 24.7863 24.6749 25.4911 23.8086 25.9326C22.8236 26.4345 21.5337 26.4346 18.9551 26.4346H12.9678C10.3891 26.4346 9.09924 26.4344 8.11426 25.9326C7.2477 25.4911 6.54305 24.7865 6.10156 23.9199C5.59965 22.9349 5.59863 21.6453 5.59863 19.0664V13.0791C5.59863 10.5003 5.59967 9.21058 6.10156 8.22559C6.54307 7.35921 7.24783 6.65431 8.11426 6.21289C9.09922 5.71123 10.3893 5.71094 12.9678 5.71094H18.9551ZM12.9678 8.19922C11.6376 8.19922 10.7885 8.2014 10.1455 8.25391C9.53372 8.30393 9.32783 8.38717 9.24414 8.42969C8.84605 8.63251 8.52224 8.95742 8.31934 9.35547C8.2769 9.43883 8.19271 9.64406 8.14258 10.2568C8.09003 10.8998 8.08789 11.7487 8.08789 13.0791V19.0664C8.08789 20.3968 8.09005 21.2457 8.14258 21.8887C8.15807 22.0781 8.17763 22.2287 8.19727 22.3486L10.7129 18.8848C11.1056 18.3436 11.9084 18.3328 12.3154 18.8633L13.998 21.0557C14.4227 21.6093 15.2687 21.569 15.6387 20.9775C16.7088 19.2653 17.5272 17.9571 18.5947 16.249C18.969 15.6502 19.8293 15.6169 20.248 16.1855L23.8184 21.0361C23.8311 20.5186 23.835 19.8832 23.835 19.0664V13.0791C23.835 11.7487 23.8328 10.8998 23.7803 10.2568C23.7301 9.64402 23.6469 9.43884 23.6045 9.35547C23.4016 8.95734 23.0768 8.63357 22.6787 8.43066C22.5954 8.38824 22.39 8.30404 21.7773 8.25391C21.1344 8.20137 20.2853 8.19922 18.9551 8.19922H12.9678Z" fill="white"/>
<defs>
<filter id="filter0_d_4180_38328" x="9.36822" y="9.69457" width="8.26356" height="8.26356" filterUnits="userSpaceOnUse" color-interpolation-filters="sRGB">
<feFlood flood-opacity="0" result="BackgroundImageFix"/>
<feColorMatrix in="SourceAlpha" type="matrix" values="0 0 0 0 0 0 0 0 0 0 0 0 0 0 0 0 0 0 127 0" result="hardAlpha"/>
<feOffset dy="0.326356"/>
<feGaussianBlur stdDeviation="0.815891"/>
<feComposite in2="hardAlpha" operator="out"/>
<feColorMatrix type="matrix" values="0 0 0 0 0 0 0 0 0 0 0 0 0 0 0 0 0 0 0.1 0"/>
<feBlend mode="normal" in2="BackgroundImageFix" result="effect1_dropShadow_4180_38328"/>
<feBlend mode="normal" in="SourceGraphic" in2="effect1_dropShadow_4180_38328" result="shape"/>
</filter>
<linearGradient id="paint0_linear_4180_38328" x1="5.54806" y1="29.1273" x2="30.188" y2="1.95814" gradientUnits="userSpaceOnUse">
<stop offset="0.229502" stop-color="#50BBC7"/>
<stop offset="1" stop-color="#73DEEA"/>
</linearGradient>
</defs>
</svg>
