<svg width="32" height="32" viewBox="0 0 32 32" fill="none" xmlns="http://www.w3.org/2000/svg">
<rect width="32" height="32" rx="10" fill="url(#paint0_linear_4180_38328)"/>
<g filter="url(#filter0_d_4180_38328)">
<mask id="path-2-inside-1_4180_38328" fill="white">
<path d="M18.9546 5.71118C21.5335 5.71118 22.8231 5.71122 23.8081 6.21313C24.6747 6.65462 25.3793 7.35928 25.8208 8.22583C26.3227 9.21085 26.3228 10.5004 26.3228 13.0793V19.0667C26.3228 21.6456 26.3227 22.9351 25.8208 23.9202C25.3793 24.7867 24.6747 25.4914 23.8081 25.9329C22.8231 26.4348 21.5335 26.4348 18.9546 26.4348H12.9673C10.3884 26.4348 9.09879 26.4348 8.11377 25.9329C7.24721 25.4914 6.54256 24.7867 6.10107 23.9202C5.59916 22.9351 5.59912 21.6456 5.59912 19.0667V13.0793C5.59912 10.5004 5.59916 9.21085 6.10107 8.22583C6.54256 7.35928 7.24721 6.65462 8.11377 6.21313C9.09879 5.71123 10.3884 5.71118 12.9673 5.71118H18.9546Z"/>
</mask>
<path d="M18.9546 5.71118V3.22265V5.71118ZM23.8081 6.21313L22.6783 8.43041L22.6784 8.43048L23.8081 6.21313ZM25.8208 8.22583L23.6035 9.35552L23.6035 9.35563L25.8208 8.22583ZM26.3228 13.0793L28.8113 13.0793L26.3228 13.0793ZM26.3228 19.0667H28.8113H26.3228ZM25.8208 23.9202L23.6035 22.7904L23.6035 22.7905L25.8208 23.9202ZM23.8081 25.9329L22.6784 23.7155L22.6783 23.7156L23.8081 25.9329ZM18.9546 26.4348L18.9546 28.9233L18.9546 26.4348ZM12.9673 26.4348V28.9233V26.4348ZM8.11377 25.9329L9.24356 23.7156L9.24346 23.7155L8.11377 25.9329ZM6.10107 23.9202L8.31842 22.7905L8.31835 22.7904L6.10107 23.9202ZM5.59912 19.0667L3.11059 19.0667L5.59912 19.0667ZM5.59912 13.0793H3.11059H5.59912ZM6.10107 8.22583L8.31836 9.35563L8.31842 9.35552L6.10107 8.22583ZM8.11377 6.21313L9.24346 8.43048L9.24357 8.43042L8.11377 6.21313ZM12.9673 5.71118L12.9673 3.22265L12.9673 5.71118ZM18.9546 8.19971C20.2851 8.19971 21.1334 8.20166 21.7764 8.25421C22.3904 8.30438 22.5951 8.38801 22.6783 8.43041L24.9379 3.99585C24.0361 3.53635 23.1035 3.369 22.1817 3.29368C21.289 3.22072 20.203 3.22265 18.9546 3.22265L18.9546 8.19971ZM22.6784 8.43048C23.0767 8.63337 23.4006 8.95728 23.6035 9.35552L28.0381 7.09614C27.3581 5.76128 26.2727 4.67588 24.9378 3.99579L22.6784 8.43048ZM23.6035 9.35563C23.6459 9.43886 23.7296 9.64356 23.7797 10.2576C23.8323 10.9006 23.8342 11.7488 23.8342 13.0793L28.8113 13.0793C28.8113 11.8309 28.8132 10.7449 28.7403 9.85219C28.6649 8.93042 28.4976 7.99782 28.0381 7.09603L23.6035 9.35563ZM23.8342 13.0793V19.0667H28.8113V13.0793H23.8342ZM23.8342 19.0667C23.8342 20.3972 23.8323 21.2454 23.7797 21.8884C23.7296 22.5024 23.6459 22.7071 23.6035 22.7904L28.0381 25.05C28.4976 24.1482 28.6649 23.2156 28.7403 22.2938C28.8132 21.4011 28.8113 20.3151 28.8113 19.0667L23.8342 19.0667ZM23.6035 22.7905C23.4006 23.1887 23.0767 23.5126 22.6784 23.7155L24.9378 28.1502C26.2727 27.4701 27.3581 26.3847 28.0381 25.0499L23.6035 22.7905ZM22.6783 23.7156C22.5951 23.758 22.3904 23.8416 21.7764 23.8918C21.1334 23.9443 20.2851 23.9463 18.9546 23.9463L18.9546 28.9233C20.203 28.9233 21.289 28.9253 22.1817 28.8523C23.1035 28.777 24.0361 28.6096 24.9379 28.1501L22.6783 23.7156ZM18.9546 23.9463H12.9673V28.9233H18.9546V23.9463ZM12.9673 23.9463C11.6368 23.9463 10.7885 23.9443 10.1455 23.8918C9.5315 23.8416 9.3268 23.758 9.24356 23.7156L6.98397 28.1501C7.88576 28.6096 8.81835 28.777 9.74013 28.8523C10.6329 28.9253 11.7189 28.9233 12.9673 28.9233L12.9673 23.9463ZM9.24346 23.7155C8.84521 23.5126 8.52131 23.1887 8.31842 22.7905L3.88373 25.0499C4.56382 26.3847 5.64921 27.4701 6.98408 28.1502L9.24346 23.7155ZM8.31835 22.7904C8.27595 22.7071 8.19232 22.5024 8.14215 21.8884C8.0896 21.2454 8.08765 20.3972 8.08765 19.0667L3.11059 19.0667C3.11059 20.3151 3.10866 21.4011 3.18161 22.2938C3.25694 23.2156 3.42429 24.1482 3.88379 25.05L8.31835 22.7904ZM8.08765 19.0667V13.0793H3.11059V19.0667H8.08765ZM8.08765 13.0793C8.08765 11.7488 8.0896 10.9006 8.14215 10.2576C8.19232 9.64356 8.27595 9.43886 8.31836 9.35563L3.88379 7.09603C3.42429 7.99782 3.25694 8.93041 3.18162 9.85219C3.10866 10.7449 3.11059 11.8309 3.11059 13.0793L8.08765 13.0793ZM8.31842 9.35552C8.52131 8.95728 8.84521 8.63337 9.24346 8.43048L6.98408 3.99579C5.64921 4.67588 4.56382 5.76128 3.88373 7.09614L8.31842 9.35552ZM9.24357 8.43042C9.3268 8.38801 9.5315 8.30438 10.1455 8.25421C10.7885 8.20166 11.6368 8.19971 12.9673 8.19971L12.9673 3.22265C11.7189 3.22265 10.6329 3.22072 9.74013 3.29368C8.81835 3.369 7.88576 3.53635 6.98397 3.99585L9.24357 8.43042ZM12.9673 8.19971H18.9546V3.22265H12.9673V8.19971Z" fill="white" mask="url(#path-2-inside-1_4180_38328)"/>
</g>
<g filter="url(#filter1_d_4180_38328)">
<circle cx="13.5" cy="13.5" r="2.5" fill="white"/>
</g>
<path d="M7.53759 23.2593C7.31371 23.5678 7.53407 24 7.91521 24H25.0771C25.4597 24 25.6797 23.5649 25.4529 23.2568L20.2479 16.1859C19.8292 15.6171 18.9688 15.6499 18.5945 16.2488C17.5269 17.9569 16.7093 19.2651 15.6392 20.9774C15.2693 21.5691 14.4223 21.6098 13.9976 21.0561L12.3156 18.8633C11.9086 18.3327 11.1056 18.3434 10.7128 18.8845L7.53759 23.2593Z" fill="white"/>
<defs>
<filter id="filter0_d_4180_38328" x="3.96734" y="4.40576" width="23.9872" height="23.9872" filterUnits="userSpaceOnUse" color-interpolation-filters="sRGB">
<feFlood flood-opacity="0" result="BackgroundImageFix"/>
<feColorMatrix in="SourceAlpha" type="matrix" values="0 0 0 0 0 0 0 0 0 0 0 0 0 0 0 0 0 0 127 0" result="hardAlpha"/>
<feOffset dy="0.326356"/>
<feGaussianBlur stdDeviation="0.815891"/>
<feComposite in2="hardAlpha" operator="out"/>
<feColorMatrix type="matrix" values="0 0 0 0 0 0 0 0 0 0 0 0 0 0 0 0 0 0 0.1 0"/>
<feBlend mode="normal" in2="BackgroundImageFix" result="effect1_dropShadow_4180_38328"/>
<feBlend mode="normal" in="SourceGraphic" in2="effect1_dropShadow_4180_38328" result="shape"/>
</filter>
<filter id="filter1_d_4180_38328" x="9.36822" y="9.69457" width="8.26356" height="8.26356" filterUnits="userSpaceOnUse" color-interpolation-filters="sRGB">
<feFlood flood-opacity="0" result="BackgroundImageFix"/>
<feColorMatrix in="SourceAlpha" type="matrix" values="0 0 0 0 0 0 0 0 0 0 0 0 0 0 0 0 0 0 127 0" result="hardAlpha"/>
<feOffset dy="0.326356"/>
<feGaussianBlur stdDeviation="0.815891"/>
<feComposite in2="hardAlpha" operator="out"/>
<feColorMatrix type="matrix" values="0 0 0 0 0 0 0 0 0 0 0 0 0 0 0 0 0 0 0.1 0"/>
<feBlend mode="normal" in2="BackgroundImageFix" result="effect1_dropShadow_4180_38328"/>
<feBlend mode="normal" in="SourceGraphic" in2="effect1_dropShadow_4180_38328" result="shape"/>
</filter>
<linearGradient id="paint0_linear_4180_38328" x1="5.54806" y1="29.1273" x2="30.188" y2="1.95814" gradientUnits="userSpaceOnUse">
<stop offset="0.229502" stop-color="#50BBC7"/>
<stop offset="1" stop-color="#73DEEA"/>
</linearGradient>
</defs>
</svg>
