<svg width="22" height="22" viewBox="0 0 22 22" fill="none" xmlns="http://www.w3.org/2000/svg">
<rect x="0.334961" y="0.334961" width="21.33" height="21.33" rx="7" fill="black"/>
<g filter="url(#filter0_d_4180_38336)">
<circle cx="9.33364" cy="9.33364" r="1.66641" fill="white"/>
</g>
<path fill-rule="evenodd" clip-rule="evenodd" d="M12.9697 4.1416C14.6886 4.1416 15.5485 4.142 16.2051 4.47656C16.7823 4.77076 17.2517 5.24015 17.5459 5.81738C17.8805 6.47391 17.8809 7.33396 17.8809 9.05273V13.0439C17.8809 14.7627 17.8803 15.6228 17.5459 16.2793C17.2517 16.8565 16.7823 17.3259 16.2051 17.6201C15.5485 17.9547 14.6886 17.9551 12.9697 17.9551H8.97852C7.25966 17.9551 6.39971 17.9546 5.74316 17.6201C5.16586 17.3259 4.69656 16.8566 4.40234 16.2793C4.06781 15.6227 4.06738 14.7629 4.06738 13.0439V9.05273C4.06738 7.33396 4.06779 6.47391 4.40234 5.81738C4.69658 5.24022 5.16596 4.77074 5.74316 4.47656C6.39969 4.14214 7.25983 4.1416 8.97852 4.1416H12.9697ZM8.97852 5.80078C8.09206 5.80078 7.52619 5.80184 7.09766 5.83691C6.79175 5.86197 6.6379 5.89954 6.55664 5.92871L6.49609 5.9541C6.26405 6.07239 6.07004 6.25287 5.93457 6.47363L5.87988 6.57031C5.85155 6.62591 5.79621 6.76294 5.7627 7.17188C5.7276 7.6004 5.72656 8.16624 5.72656 9.05273V13.0439C5.72656 13.9305 5.72762 14.4963 5.7627 14.9248C5.77304 15.0511 5.78674 15.1514 5.7998 15.2314L7.47559 12.9229C7.73731 12.5623 8.27258 12.5549 8.54395 12.9082L9.66504 14.3701C9.94814 14.7392 10.5132 14.7118 10.7598 14.3174C11.473 13.1763 12.018 12.3044 12.7295 11.166C12.979 10.7668 13.553 10.7449 13.832 11.124L16.2109 14.3564C16.2194 14.0116 16.2217 13.5881 16.2217 13.0439V9.05273C16.2217 8.16624 16.2206 7.6004 16.1855 7.17188C16.1605 6.86575 16.1229 6.71202 16.0938 6.63086L16.0684 6.57031C15.95 6.33817 15.7696 6.1442 15.5488 6.00879L15.4521 5.9541C15.3965 5.92576 15.2595 5.87043 14.8506 5.83691C14.4221 5.80182 13.8563 5.80078 12.9697 5.80078H8.97852Z" fill="white"/>
<defs>
<filter id="filter0_d_4180_38336" x="6.57955" y="6.79709" width="5.50813" height="5.50813" filterUnits="userSpaceOnUse" color-interpolation-filters="sRGB">
<feFlood flood-opacity="0" result="BackgroundImageFix"/>
<feColorMatrix in="SourceAlpha" type="matrix" values="0 0 0 0 0 0 0 0 0 0 0 0 0 0 0 0 0 0 127 0" result="hardAlpha"/>
<feOffset dy="0.217537"/>
<feGaussianBlur stdDeviation="0.543842"/>
<feComposite in2="hardAlpha" operator="out"/>
<feColorMatrix type="matrix" values="0 0 0 0 0 0 0 0 0 0 0 0 0 0 0 0 0 0 0.1 0"/>
<feBlend mode="normal" in2="BackgroundImageFix" result="effect1_dropShadow_4180_38336"/>
<feBlend mode="normal" in="SourceGraphic" in2="effect1_dropShadow_4180_38336" result="shape"/>
</filter>
</defs>
</svg>
