<svg width="22" height="22" viewBox="0 0 22 22" fill="none" xmlns="http://www.w3.org/2000/svg">
<rect x="0.334961" y="0.334961" width="21.33" height="21.33" rx="7" fill="black"/>
<g filter="url(#filter0_d_4180_38336)">
<mask id="path-2-inside-1_4180_38336" fill="white">
<path d="M12.9695 4.14185C14.6885 4.14185 15.5483 4.14223 16.2048 4.47681C16.7822 4.77102 17.2514 5.24032 17.5457 5.81763C17.8802 6.47419 17.8806 7.33404 17.8806 9.05298V13.0442C17.8806 14.7632 17.8802 15.623 17.5457 16.2795C17.2514 16.8569 16.7822 17.3261 16.2048 17.6204C15.5483 17.9549 14.6885 17.9553 12.9695 17.9553H8.97827C7.25933 17.9553 6.39948 17.9549 5.74292 17.6204C5.16561 17.3261 4.69632 16.8569 4.4021 16.2795C4.06752 15.623 4.06714 14.7632 4.06714 13.0442V9.05298C4.06714 7.33404 4.06753 6.47419 4.4021 5.81763C4.69633 5.24033 5.16562 4.77103 5.74292 4.47681C6.39948 4.14223 7.25933 4.14185 8.97827 4.14185H12.9695Z"/>
</mask>
<path d="M12.9695 4.14185V2.48308V4.14185ZM16.2048 4.47681L16.958 2.9989L16.958 2.99887L16.2048 4.47681ZM17.5457 5.81763L19.0236 5.0645L19.0235 5.06438L17.5457 5.81763ZM17.8806 9.05298L19.5394 9.05298L17.8806 9.05298ZM17.8806 13.0442H19.5394H17.8806ZM17.5457 16.2795L19.0236 17.0327L19.0236 17.0327L17.5457 16.2795ZM16.2048 17.6204L16.958 19.0983L16.958 19.0983L16.2048 17.6204ZM12.9695 17.9553L12.9695 19.6141L12.9695 17.9553ZM8.97827 17.9553V19.6141V17.9553ZM5.74292 17.6204L4.98968 19.0982L4.98979 19.0983L5.74292 17.6204ZM4.4021 16.2795L2.92417 17.0327L2.92419 17.0327L4.4021 16.2795ZM4.06714 13.0442L2.40838 13.0442L4.06714 13.0442ZM4.06714 9.05298H2.40838H4.06714ZM4.4021 5.81763L2.92421 5.0644L2.92417 5.0645L4.4021 5.81763ZM5.74292 4.47681L4.98979 2.99887L4.9897 2.99892L5.74292 4.47681ZM8.97827 4.14185L8.97827 2.48308L8.97827 4.14185ZM12.9695 5.80061C13.8562 5.80061 14.4216 5.80199 14.8502 5.83709C15.2594 5.8706 15.3961 5.92639 15.4517 5.95474L16.958 2.99887C16.357 2.69264 15.7355 2.58095 15.121 2.53063C14.5257 2.48189 13.8018 2.48308 12.9695 2.48308L12.9695 5.80061ZM15.4517 5.95472C15.7169 6.08989 15.9325 6.30549 16.0678 6.57087L19.0235 5.06438C18.5703 4.17516 17.8474 3.45215 16.958 2.9989L15.4517 5.95472ZM16.0677 6.57076C16.0961 6.62637 16.1519 6.76301 16.1854 7.17229C16.2205 7.60086 16.2219 8.16634 16.2219 9.05298L19.5394 9.05298C19.5394 8.22068 19.5406 7.49677 19.4918 6.90153C19.4415 6.28701 19.3298 5.66544 19.0236 5.0645L16.0677 6.57076ZM16.2219 9.05298V13.0442H19.5394V9.05298H16.2219ZM16.2219 13.0442C16.2219 13.9309 16.2205 14.4963 16.1854 14.9249C16.1519 15.3341 16.0961 15.4708 16.0677 15.5264L19.0236 17.0327C19.3298 16.4317 19.4415 15.8102 19.4918 15.1957C19.5406 14.6004 19.5394 13.8765 19.5394 13.0442L16.2219 13.0442ZM16.0678 15.5263C15.9325 15.7917 15.717 16.0072 15.4516 16.1425L16.958 19.0983C17.8474 18.645 18.5703 17.9221 19.0236 17.0327L16.0678 15.5263ZM15.4517 16.1424C15.3961 16.1708 15.2594 16.2266 14.8502 16.2601C14.4216 16.2952 13.8562 16.2966 12.9695 16.2966L12.9695 19.6141C13.8018 19.6141 14.5257 19.6153 15.121 19.5665C15.7355 19.5162 16.357 19.4045 16.958 19.0983L15.4517 16.1424ZM12.9695 16.2966H8.97827V19.6141H12.9695V16.2966ZM8.97827 16.2966C8.09163 16.2966 7.52615 16.2952 7.09758 16.2601C6.68831 16.2266 6.55167 16.1708 6.49605 16.1424L4.98979 19.0983C5.59073 19.4045 6.2123 19.5162 6.82682 19.5665C7.42206 19.6153 8.14597 19.6141 8.97827 19.6141L8.97827 16.2966ZM6.49616 16.1425C6.23078 16.0072 6.01519 15.7916 5.88001 15.5264L2.92419 17.0327C3.37745 17.9221 4.10045 18.645 4.98968 19.0982L6.49616 16.1425ZM5.88003 15.5264C5.85168 15.4708 5.79589 15.3341 5.76238 14.9249C5.72729 14.4963 5.7259 13.9309 5.7259 13.0442L2.40838 13.0442C2.40838 13.8765 2.40718 14.6004 2.45592 15.1957C2.50625 15.8102 2.61794 16.4317 2.92417 17.0327L5.88003 15.5264ZM5.7259 13.0442V9.05298H2.40838V13.0442H5.7259ZM5.7259 9.05298C5.7259 8.16634 5.72729 7.60086 5.76238 7.17229C5.7959 6.76301 5.85169 6.62637 5.88003 6.57076L2.92417 5.0645C2.61794 5.66544 2.50625 6.28701 2.45593 6.90153C2.40718 7.49677 2.40838 8.22068 2.40838 9.05298L5.7259 9.05298ZM5.87999 6.57085C6.0152 6.30554 6.23084 6.08991 6.49614 5.95469L4.9897 2.99892C4.10041 3.45215 3.37745 4.17512 2.92421 5.0644L5.87999 6.57085ZM6.49605 5.95474C6.55167 5.9264 6.68831 5.87061 7.09758 5.83709C7.52615 5.802 8.09163 5.80061 8.97827 5.80061L8.97827 2.48308C8.14597 2.48308 7.42206 2.48189 6.82682 2.53063C6.2123 2.58096 5.59073 2.69264 4.98979 2.99887L6.49605 5.95474ZM8.97827 5.80061H12.9695V2.48308H8.97827V5.80061Z" fill="white" mask="url(#path-2-inside-1_4180_38336)"/>
</g>
<g filter="url(#filter1_d_4180_38336)">
<circle cx="9.33364" cy="9.33364" r="1.66641" fill="white"/>
</g>
<path d="M5.35931 15.8388C5.21008 16.0445 5.35697 16.3326 5.61102 16.3326H17.0505C17.3055 16.3326 17.4522 16.0425 17.301 15.8372L13.8315 11.1239C13.5525 10.7448 12.9789 10.7667 12.7294 11.1659C12.0178 12.3045 11.4728 13.1765 10.7595 14.3178C10.513 14.7122 9.94841 14.7394 9.66531 14.3703L8.54416 12.9086C8.27288 12.555 7.73763 12.5621 7.47582 12.9228L5.35931 15.8388Z" fill="white"/>
<defs>
<filter id="filter0_d_4180_38336" x="2.97945" y="3.2717" width="15.9888" height="15.9888" filterUnits="userSpaceOnUse" color-interpolation-filters="sRGB">
<feFlood flood-opacity="0" result="BackgroundImageFix"/>
<feColorMatrix in="SourceAlpha" type="matrix" values="0 0 0 0 0 0 0 0 0 0 0 0 0 0 0 0 0 0 127 0" result="hardAlpha"/>
<feOffset dy="0.217537"/>
<feGaussianBlur stdDeviation="0.543842"/>
<feComposite in2="hardAlpha" operator="out"/>
<feColorMatrix type="matrix" values="0 0 0 0 0 0 0 0 0 0 0 0 0 0 0 0 0 0 0.1 0"/>
<feBlend mode="normal" in2="BackgroundImageFix" result="effect1_dropShadow_4180_38336"/>
<feBlend mode="normal" in="SourceGraphic" in2="effect1_dropShadow_4180_38336" result="shape"/>
</filter>
<filter id="filter1_d_4180_38336" x="6.57955" y="6.79709" width="5.50813" height="5.50813" filterUnits="userSpaceOnUse" color-interpolation-filters="sRGB">
<feFlood flood-opacity="0" result="BackgroundImageFix"/>
<feColorMatrix in="SourceAlpha" type="matrix" values="0 0 0 0 0 0 0 0 0 0 0 0 0 0 0 0 0 0 127 0" result="hardAlpha"/>
<feOffset dy="0.217537"/>
<feGaussianBlur stdDeviation="0.543842"/>
<feComposite in2="hardAlpha" operator="out"/>
<feColorMatrix type="matrix" values="0 0 0 0 0 0 0 0 0 0 0 0 0 0 0 0 0 0 0.1 0"/>
<feBlend mode="normal" in2="BackgroundImageFix" result="effect1_dropShadow_4180_38336"/>
<feBlend mode="normal" in="SourceGraphic" in2="effect1_dropShadow_4180_38336" result="shape"/>
</filter>
</defs>
</svg>
